<svg width="18" height="21" viewBox="0 0 18 21" fill="none" xmlns="http://www.w3.org/2000/svg">
<path d="M13.9915 6.34H17.7415V16.965C17.7415 18.7228 16.3353 20.09 14.6165 20.09H3.36653C1.60872 20.09 0.241529 18.7228 0.241529 16.965V6.34H3.99153V5.09C3.99153 2.35562 6.21809 0.0899963 8.99153 0.0899963C11.7259 0.0899963 13.9915 2.35562 13.9915 5.09V6.34ZM6.49153 5.09V6.34H11.4915V5.09C11.4915 3.72281 10.3587 2.59 8.99153 2.59C7.58528 2.59 6.49153 3.72281 6.49153 5.09ZM12.7415 9.7775C13.2493 9.7775 13.679 9.38687 13.679 8.84C13.679 8.33218 13.2493 7.9025 12.7415 7.9025C12.1947 7.9025 11.804 8.33218 11.804 8.84C11.804 9.38687 12.1947 9.7775 12.7415 9.7775ZM5.24153 9.7775C5.74934 9.7775 6.17903 9.38687 6.17903 8.84C6.17903 8.33218 5.74934 7.9025 5.24153 7.9025C4.69465 7.9025 4.30403 8.33218 4.30403 8.84C4.30403 9.38687 4.69465 9.7775 5.24153 9.7775Z" fill="#212121"/>
<a href="https://www.figma.com/design/HcvNiEBBoq4cqbnUeIwEOU/Untitled?node-id=1-227">
<rect fill="black" fill-opacity="0" x="0.151563" y="-1.5" width="17.5" height="23"/>
</a>
</svg>
