<svg width="133" height="15" viewBox="0 0 133 15" fill="none" xmlns="http://www.w3.org/2000/svg">
<path d="M15.693 0.971997V14.31H12.444V6.311L9.46097 14.31H6.83897L3.83697 6.292V14.31H0.587973V0.971997H4.42597L8.16897 10.206L11.874 0.971997H15.693ZM29.4674 0.971997L24.8504 9.902V14.31H21.6014V9.902L16.9844 0.971997H20.6704L23.2544 6.558L25.8194 0.971997H29.4674ZM34.5938 4.354C34.6445 2.99866 35.0878 1.95366 35.9238 1.219C36.7598 0.48433 37.8935 0.116997 39.3248 0.116997C40.2748 0.116997 41.0855 0.281664 41.7568 0.610997C42.4408 0.94033 42.9538 1.39 43.2958 1.96C43.6505 2.53 43.8278 3.16966 43.8278 3.879C43.8278 4.715 43.6188 5.399 43.2008 5.931C42.7828 6.45033 42.2952 6.805 41.7378 6.995V7.071C42.4598 7.31166 43.0298 7.71066 43.4478 8.268C43.8658 8.82533 44.0748 9.541 44.0748 10.415C44.0748 11.2003 43.8912 11.897 43.5238 12.505C43.1692 13.1003 42.6435 13.569 41.9468 13.911C41.2628 14.253 40.4458 14.424 39.4958 14.424C37.9758 14.424 36.7598 14.0503 35.8478 13.303C34.9485 12.5557 34.4735 11.4283 34.4228 9.921H37.5768C37.5895 10.4783 37.7478 10.9217 38.0518 11.251C38.3558 11.5677 38.7992 11.726 39.3818 11.726C39.8758 11.726 40.2558 11.5867 40.5218 11.308C40.8005 11.0167 40.9398 10.6367 40.9398 10.168C40.9398 9.56 40.7435 9.123 40.3508 8.857C39.9708 8.57833 39.3565 8.439 38.5078 8.439H37.8998V5.798H38.5078C39.1538 5.798 39.6732 5.69033 40.0658 5.475C40.4712 5.247 40.6738 4.848 40.6738 4.278C40.6738 3.822 40.5472 3.46733 40.2938 3.214C40.0405 2.96066 39.6922 2.834 39.2488 2.834C38.7675 2.834 38.4065 2.97966 38.1658 3.271C37.9378 3.56233 37.8048 3.92333 37.7668 4.354H34.5938ZM51.3037 0.971997C52.7097 0.971997 53.9384 1.25066 54.9897 1.808C56.0411 2.36533 56.8517 3.15066 57.4217 4.164C58.0044 5.16466 58.2957 6.32366 58.2957 7.641C58.2957 8.94566 58.0044 10.1047 57.4217 11.118C56.8517 12.1313 56.0347 12.9167 54.9707 13.474C53.9194 14.0313 52.6971 14.31 51.3037 14.31H46.3067V0.971997H51.3037ZM51.0947 11.498C52.3234 11.498 53.2797 11.1623 53.9637 10.491C54.6477 9.81966 54.9897 8.86966 54.9897 7.641C54.9897 6.41233 54.6477 5.456 53.9637 4.772C53.2797 4.088 52.3234 3.746 51.0947 3.746H49.5557V11.498H51.0947ZM68.9638 14.443C67.9884 14.443 67.1144 14.2847 66.3418 13.968C65.5691 13.6513 64.9484 13.1827 64.4798 12.562C64.0238 11.9413 63.7831 11.194 63.7578 10.32H67.2158C67.2664 10.814 67.4374 11.194 67.7288 11.46C68.0201 11.7133 68.4001 11.84 68.8688 11.84C69.3501 11.84 69.7301 11.7323 70.0088 11.517C70.2874 11.289 70.4268 10.9787 70.4268 10.586C70.4268 10.2567 70.3128 9.98433 70.0848 9.769C69.8694 9.55366 69.5971 9.37633 69.2678 9.237C68.9511 9.09766 68.4951 8.93933 67.8998 8.762C67.0384 8.496 66.3354 8.23 65.7908 7.964C65.2461 7.698 64.7774 7.30533 64.3848 6.786C63.9921 6.26666 63.7958 5.589 63.7958 4.753C63.7958 3.51166 64.2454 2.54266 65.1448 1.846C66.0441 1.13666 67.2158 0.781997 68.6598 0.781997C70.1291 0.781997 71.3134 1.13666 72.2128 1.846C73.1121 2.54266 73.5934 3.518 73.6568 4.772H70.1418C70.1164 4.34133 69.9581 4.00566 69.6668 3.765C69.3754 3.51166 69.0018 3.385 68.5458 3.385C68.1531 3.385 67.8364 3.49266 67.5958 3.708C67.3551 3.91066 67.2348 4.20833 67.2348 4.601C67.2348 5.03166 67.4374 5.36733 67.8428 5.608C68.2481 5.84866 68.8814 6.10833 69.7428 6.387C70.6041 6.67833 71.3008 6.957 71.8328 7.223C72.3774 7.489 72.8461 7.87533 73.2388 8.382C73.6314 8.88866 73.8278 9.541 73.8278 10.339C73.8278 11.099 73.6314 11.7893 73.2388 12.41C72.8588 13.0307 72.3014 13.5247 71.5668 13.892C70.8321 14.2593 69.9644 14.443 68.9638 14.443ZM85.4222 0.971997V3.575H81.8882V14.31H78.6392V3.575H75.1052V0.971997H85.4222ZM90.2448 0.971997V8.952C90.2448 9.75 90.4412 10.3643 90.8338 10.795C91.2265 11.2257 91.8028 11.441 92.5628 11.441C93.3228 11.441 93.9055 11.2257 94.3108 10.795C94.7162 10.3643 94.9188 9.75 94.9188 8.952V0.971997H98.1678V8.933C98.1678 10.1237 97.9145 11.1307 97.4078 11.954C96.9012 12.7773 96.2172 13.398 95.3558 13.816C94.5072 14.234 93.5572 14.443 92.5058 14.443C91.4545 14.443 90.5108 14.2403 89.6748 13.835C88.8515 13.417 88.1992 12.7963 87.7178 11.973C87.2365 11.137 86.9958 10.1237 86.9958 8.933V0.971997H90.2448ZM105.446 0.971997C106.852 0.971997 108.081 1.25066 109.132 1.808C110.184 2.36533 110.994 3.15066 111.564 4.164C112.147 5.16466 112.438 6.32366 112.438 7.641C112.438 8.94566 112.147 10.1047 111.564 11.118C110.994 12.1313 110.177 12.9167 109.113 13.474C108.062 14.0313 106.84 14.31 105.446 14.31H100.449V0.971997H105.446ZM105.237 11.498C106.466 11.498 107.422 11.1623 108.106 10.491C108.79 9.81966 109.132 8.86966 109.132 7.641C109.132 6.41233 108.79 5.456 108.106 4.772C107.422 4.088 106.466 3.746 105.237 3.746H103.698V11.498H105.237ZM117.503 0.971997V14.31H114.254V0.971997H117.503ZM126.166 14.443C124.912 14.443 123.759 14.1517 122.708 13.569C121.669 12.9863 120.839 12.1757 120.219 11.137C119.611 10.0857 119.307 8.90766 119.307 7.603C119.307 6.29833 119.611 5.12666 120.219 4.088C120.839 3.04933 121.669 2.23866 122.708 1.656C123.759 1.07333 124.912 0.781997 126.166 0.781997C127.42 0.781997 128.566 1.07333 129.605 1.656C130.656 2.23866 131.479 3.04933 132.075 4.088C132.683 5.12666 132.987 6.29833 132.987 7.603C132.987 8.90766 132.683 10.0857 132.075 11.137C131.467 12.1757 130.643 12.9863 129.605 13.569C128.566 14.1517 127.42 14.443 126.166 14.443ZM126.166 11.479C127.23 11.479 128.078 11.1243 128.712 10.415C129.358 9.70566 129.681 8.76833 129.681 7.603C129.681 6.425 129.358 5.48766 128.712 4.791C128.078 4.08166 127.23 3.727 126.166 3.727C125.089 3.727 124.228 4.07533 123.582 4.772C122.948 5.46866 122.632 6.41233 122.632 7.603C122.632 8.781 122.948 9.72466 123.582 10.434C124.228 11.1307 125.089 11.479 126.166 11.479Z" fill="#212121"/>
<a href="https://www.figma.com/design/HcvNiEBBoq4cqbnUeIwEOU/Untitled?node-id=1-2">
<rect fill="black" fill-opacity="0" y="-1.9" width="134.204" height="28.5"/>
</a>
</svg>
