<svg width="21" height="21" viewBox="0 0 21 21" fill="none" xmlns="http://www.w3.org/2000/svg">
<path d="M10.2493 11.75C7.12434 11.75 4.62434 9.25 4.62434 6.125C4.62434 3.03906 7.12434 0.5 10.2493 0.5C13.3353 0.5 15.8743 3.03906 15.8743 6.125C15.8743 9.25 13.3353 11.75 10.2493 11.75ZM15.2493 13C17.9837 13 20.2493 15.2656 20.2493 18V18.625C20.2493 19.6797 19.39 20.5 18.3743 20.5H2.12434C1.06965 20.5 0.249341 19.6797 0.249341 18.625V18C0.249341 15.2656 2.4759 13 5.24934 13H7.39778C8.25715 13.4297 9.23372 13.625 10.2493 13.625C11.265 13.625 12.2025 13.4297 13.0618 13H15.2493Z" fill="#212121"/>
</svg>
